Coordinates
version=1
nRows=14
nColumns=36
inDegrees=yes

Units are S.I. units (second, meters, Newtons, ...)
If the header above contains a line with 'inDegrees', this indicates whether rotational values are in degrees (yes) or radians (no).

endheader
time	pelvis_tilt	pelvis_list	pelvis_rotation	pelvis_tx	pelvis_ty	pelvis_tz	hip_flexion_r	hip_adduction_r	hip_rotation_r	knee_angle_r	knee_angle_r_beta	ankle_angle_r	subtalar_angle_r	mtp_angle_r	hip_flexion_l	hip_adduction_l	hip_rotation_l	knee_angle_l	knee_angle_l_beta	ankle_angle_l	subtalar_angle_l	mtp_angle_l	lumbar_extension	lumbar_bending	lumbar_rotation	arm_flex_r	arm_add_r	arm_rot_r	elbow_flex_r	pro_sup_r	arm_flex_l	arm_add_l	arm_rot_l	elbow_flex_l	pro_sup_l
      0.00000000	      1.20206780	     -0.41860971	     13.14904374	      0.03369239	      1.26348747	      0.04382073	     -0.72608877	     -3.85547236	      1.34743462	      4.52796224	      0.07902785	      3.17222122	    -17.33217859	     -6.75621676	     -0.80940979	      1.01169494	      9.65970519	      5.03172409	      0.08782015	     11.72751199	     -3.36487075	     -6.75621676	     -9.81759058	     -0.12399838	     -4.57007893	      7.41616498	     -5.64572465	     24.40190151	     23.36599449	     73.99267417	      4.21857801	     -8.48008520	     27.57968458	     22.22637200	     63.82009746
      0.01666670	     -0.96161183	     -1.79600638	     13.09760196	      0.03581150	      1.25735832	      0.04381417	      1.65817211	     -3.15630033	      0.99466352	      4.44958453	      0.07765990	      4.70834100	    -14.16697072	     -7.02532885	      1.55807051	      0.50532312	     10.66992870	      4.53421326	      0.07913695	     11.19878414	     -3.06249754	     -7.02532885	     -5.80275515	      0.95380822	     -4.37854273	      6.42286208	     -5.69518395	     22.86331660	     23.34937788	     75.62163059	      3.13404492	     -7.89056800	     26.71804793	     21.68063877	     64.14277994
      0.03333330	     -1.85826638	     -1.69893408	     12.45193556	      0.03662094	      1.25573394	      0.04511775	      1.99600399	     -3.69885290	      0.72057446	      3.30220842	      0.05763441	      5.73490041	    -12.36433188	     -7.06081965	      2.08618019	      0.68743665	      9.24503796	      4.01713320	      0.07011220	     11.47638543	     -1.55503738	     -7.06081965	     -4.71350293	      0.41259926	     -4.03882126	      6.25033512	     -4.92750531	     21.23884916	     22.83221181	     75.79876504	      2.82544402	     -7.93589150	     25.63285171	     21.64847544	     63.96815866
      0.05000000	     -2.07581100	     -1.55846885	     12.25023234	      0.03665170	      1.25541005	      0.04535055	      1.90911526	     -3.95799030	      0.30682719	      2.54881930	      0.04448529	      6.46314961	    -10.92637568	     -7.24920576	      1.67808059	      0.82707715	      9.18005889	      3.06316876	      0.05346238	     11.11728118	     -1.07771821	     -7.24920576	     -4.61501948	      0.15738655	     -3.68486508	      5.25464817	     -3.86253513	     11.56151041	     23.71870152	     89.98970626	      2.55592546	     -7.51627278	     20.28508277	     21.63461784	     67.36086997
      0.06666670	     -2.11482479	     -1.62833586	     11.94879674	      0.03661725	      1.25517098	      0.04583913	      1.72284178	     -3.90240723	      0.16517346	      2.04957294	      0.03577180	      6.82528478	    -10.17776231	     -7.28958173	      1.35052385	      0.72217918	      8.84892585	      2.48142217	      0.04330899	     11.18831179	     -0.38160576	     -7.28958173	     -4.54679863	      0.27828503	     -3.34381242	      5.13889688	     -3.78999934	     10.86962004	     23.82106201	     88.15441306	      2.48577848	     -7.24517791	     18.86054037	     21.21375353	     66.40321693
      0.08333330	     -2.25147652	     -1.67293613	     11.62266092	      0.03646106	      1.25222954	      0.04623033	      1.76649192	     -3.79480097	     -0.06406995	      1.89423290	      0.03306060	      7.32789609	     -9.52153725	     -7.37240684	      1.28644141	      0.70579221	      8.67368987	      2.20081075	      0.03841139	     11.43991837	      0.06830815	     -7.37240684	     -4.35161764	      0.31623273	     -3.19000070	      5.21387665	     -3.83350892	     11.25624189	     23.85659276	     87.60949109	      2.18466244	     -6.99622337	     16.44546116	     21.27418045	     64.87986321
      0.10000000	     -2.17968981	     -1.72021136	     11.43962527	      0.03641127	      1.25254541	      0.04662520	      1.59755004	     -3.67028588	     -0.12912548	      1.77328051	      0.03094958	      7.48169871	     -9.43591289	     -7.39541240	      1.07809099	      0.61784511	      8.50560412	      1.98791524	      0.03469567	     11.67638836	      0.61458230	     -7.39541240	     -4.35178213	      0.47154004	     -2.89317265	      5.21693284	     -3.89439023	     11.15943315	     24.04431570	     85.04314774	      2.00023718	     -6.89335268	     15.75672503	     21.67520412	     64.02395521
      0.11666670	     -2.17447060	     -1.70951330	     11.32035186	      0.03599624	      1.25549456	      0.04633973	      1.46716854	     -3.63714434	     -0.48984523	      1.48873288	      0.02598329	      7.47712752	     -8.99781968	     -7.41452428	      0.95784000	      0.62210962	      8.54056451	      1.87055610	      0.03264736	     11.60518606	      0.66244533	     -7.41452428	     -4.26501172	      0.51897575	     -2.54757951	      5.48454603	     -3.92877167	     11.63581935	     23.55904519	     83.22698568	      2.27332254	     -6.53896285	     15.01196816	     21.16878418	     63.22617388
      0.13333330	     -2.38043706	     -1.71546912	     11.11509734	      0.03609445	      1.25503892	      0.04677362	      1.64322333	     -3.64765090	     -0.64943999	      1.24503006	      0.02172987	      7.42239672	     -8.58258066	     -7.43486796	      1.08615279	      0.61442144	      8.38455922	      1.87131933	      0.03266068	     11.59981177	      0.96266297	     -7.43486796	     -3.81111943	      0.50616480	     -2.29248932	      5.85081072	     -4.00230175	     13.05123601	     22.60945292	     82.19476657	      2.51134432	     -6.07638530	     13.92043935	     20.13014506	     62.21709638
      0.15000000	     -2.18887599	     -1.69759159	     11.15364515	      0.03564138	      1.25510399	      0.04667506	      1.30970937	     -3.58466685	     -1.17715463	      1.00001189	      0.01745350	      7.38935799	     -7.94319222	     -7.44306516	      0.77941277	      0.53984103	      8.52496989	      1.81270029	      0.03163759	     11.41515294	      0.65611636	     -7.44306516	     -4.06774162	      0.56716836	     -2.21546362	      6.01711456	     -4.08274116	     13.39014921	     22.52898349	     81.47204291	      2.58266837	     -5.94278095	     13.40787016	     20.39962064	     61.77486385
      0.16666670	     -2.35271261	     -1.71749428	     10.93673307	      0.03567194	      1.25476691	      0.04731308	      1.41654047	     -3.53164413	     -1.11740624	      0.78174247	      0.01364398	      7.28849937	     -7.76653354	     -7.47077426	      0.88228190	      0.46586027	      8.21429897	      1.81935510	      0.03175374	     11.42182240	      0.85732260	     -7.47077426	     -3.69895419	      0.61506013	     -2.24480903	      6.43047127	     -4.17755651	     14.42571554	     21.80297941	     85.17617450	      2.43753868	     -5.64063414	     11.78300209	     20.23352029	     60.15957800
      0.18333330	     -2.39322770	     -1.75593941	     10.80365246	      0.03527279	      1.25177741	      0.04744101	      1.41658468	     -3.50871448	     -1.17279980	      0.63718140	      0.01112091	      7.28478399	     -7.42782522	     -7.49238146	      0.87520591	      0.38051528	      8.08135963	      1.84119048	      0.03213484	     11.42594493	      0.86513593	     -7.49238146	     -3.54420038	      0.72206005	     -2.03618766	      6.55034602	     -4.22827707	     14.06435760	     21.57205696	     86.11077415	      2.53287195	     -5.46854701	     11.40426948	     20.16147389	     59.28670262
      0.20000000	     -2.45443111	     -1.75031189	     10.67511858	      0.03509407	      1.25166334	      0.04791375	      1.42297817	     -3.49649519	     -1.25195801	      0.51016824	      0.00890412	      7.47635453	     -6.94909492	     -7.49716962	      0.90695143	      0.34161205	      7.98613699	      1.82067122	      0.03177671	     11.39980074	      0.80347042	     -7.49716962	     -3.37960655	      0.76666222	     -1.90331373	      6.54958512	     -4.33013962	     14.09207511	     21.59763490	     86.29147484	      2.55168333	     -5.37147679	     11.04717467	     20.16630889	     58.67998053
      0.21666670	     -2.49799830	     -1.73882552	     10.55454191	      0.03470274	      1.25141360	      0.04787320	      1.46338180	     -3.53887158	     -1.19909301	      0.41981213	      0.00732710	      7.63855745	     -6.56878420	     -7.49755792	      0.91831248	      0.32351657	      7.86680534	      1.79067960	      0.03125325	     11.36349243	      0.76577916	     -7.49755792	     -3.29061315	      0.79744684	     -1.61338313	      6.44808511	     -4.36483394	     14.08193720	     21.64055357	     85.10215135	      2.53322565	     -5.35967975	     10.80201922	     20.55489867	     58.54000688
